<?xml version="1.0" standalone="no"?>
<!DOCTYPE svg PUBLIC "-//W3C//DTD SVG 20010904//EN"
 "http://www.w3.org/TR/2001/REC-SVG-20010904/DTD/svg10.dtd">
<svg version="1.0" xmlns="http://www.w3.org/2000/svg"
 width="700.000000pt" height="700.000000pt" viewBox="0 0 700.000000 700.000000"
 preserveAspectRatio="xMidYMid meet">
<metadata>
Created by potrace 1.14, written by Peter Selinger 2001-2017
</metadata>
<g transform="translate(0.000000,700.000000) scale(0.100000,-0.100000)"
fill="#000000" stroke="none">
<path d="M3369 6996 c-2 -2 -24 -6 -49 -10 -272 -35 -542 -169 -740 -365 -116
-116 -179 -203 -250 -346 -72 -144 -93 -209 -124 -370 -15 -80 -22 -320 -17
-602 l1 -53 1310 0 c1241 0 1310 1 1311 18 3 86 -2 527 -6 566 -48 371 -235
694 -530 911 -165 122 -356 201 -580 241 -34 6 -321 15 -326 10z"/>
<path d="M773 5674 c-197 -51 -333 -223 -333 -422 0 -77 11 -125 48 -202 21
-45 96 -125 425 -456 l399 -401 0 -299 c0 -165 -1 -320 -1 -346 l-1 -48 -454
0 c-253 0 -476 -4 -505 -10 -209 -39 -362 -240 -347 -455 11 -178 123 -325
292 -386 56 -21 79 -22 529 -24 259 -2 475 -3 480 -4 6 -1 10 -101 10 -279 1
-281 4 -338 31 -472 13 -64 53 -209 70 -254 3 -9 -157 -177 -433 -452 -241
-242 -453 -460 -470 -485 -54 -78 -76 -160 -71 -264 4 -76 10 -101 38 -160
112 -234 399 -324 617 -193 31 19 202 182 439 419 l387 387 54 -44 c214 -174
530 -319 783 -359 25 -4 53 -9 62 -10 81 -16 422 -26 448 -14 13 6 15 198 14
1646 -1 997 2 1656 8 1683 13 63 82 144 131 154 7 2 28 6 49 10 58 12 138 -16
181 -63 19 -22 41 -50 49 -63 11 -19 13 -322 15 -1687 1 -915 4 -1669 6 -1675
10 -26 445 -4 567 29 3 1 21 5 40 9 117 25 328 107 433 168 26 15 50 28 52 28
8 0 169 113 216 151 l45 38 385 -385 c211 -212 404 -398 429 -414 139 -89 331
-89 470 0 153 98 230 286 190 463 -27 123 -36 133 -517 616 -249 249 -453 455
-453 456 0 1 7 22 15 46 18 51 53 181 61 224 2 17 9 55 15 85 9 45 13 187 19
645 0 20 7 20 473 21 524 0 525 0 632 69 192 124 256 357 156 565 -50 105
-175 203 -292 229 -25 6 -239 10 -503 11 -253 0 -462 2 -464 5 -2 2 -4 158 -4
346 l0 342 395 396 c236 237 405 414 420 441 59 106 73 217 42 333 -74 280
-398 409 -649 257 -31 -19 -203 -182 -440 -420 l-389 -388 -1566 0 -1566 0
-400 398 c-407 404 -430 425 -538 460 -55 17 -164 19 -224 4z"/>
</g>
</svg>
