<?xml version="1.0" standalone="no"?>
<!DOCTYPE svg PUBLIC "-//W3C//DTD SVG 20010904//EN"
 "http://www.w3.org/TR/2001/REC-SVG-20010904/DTD/svg10.dtd">
<svg version="1.0" xmlns="http://www.w3.org/2000/svg"
 width="576.000000pt" height="576.000000pt" viewBox="0 0 576.000000 576.000000"
 preserveAspectRatio="xMidYMid meet">
<metadata>
Created by potrace 1.14, written by Peter Selinger 2001-2017
</metadata>
<g transform="translate(0.000000,576.000000) scale(0.100000,-0.100000)"
fill="#000000" stroke="none">
<path d="M1395 5416 c-19 -11 -37 -28 -41 -38 -3 -10 -9 -18 -14 -18 -7 0 -15
-23 -25 -70 -2 -8 -17 -69 -35 -135 -17 -66 -33 -127 -35 -135 -2 -8 -15 -62
-30 -120 -15 -58 -29 -112 -31 -120 -2 -8 -35 -139 -75 -290 -39 -151 -72
-297 -73 -324 -2 -51 13 -116 26 -116 5 0 8 -6 8 -12 0 -7 15 -29 33 -49 17
-20 41 -47 52 -60 286 -338 411 -485 417 -487 5 -2 8 -8 8 -14 0 -6 8 -17 17
-24 10 -7 16 -15 13 -18 -5 -4 -133 45 -500 192 -14 6 -50 20 -80 32 -30 12
-68 28 -85 35 -16 7 -47 19 -68 26 -21 7 -42 18 -46 24 -5 5 -20 51 -35 100
-15 50 -33 108 -40 130 -8 22 -21 63 -29 90 -8 28 -31 102 -51 165 -20 63 -36
118 -36 122 -1 4 -8 27 -16 50 -9 24 -17 48 -18 53 -27 108 -70 160 -142 171
-29 4 -61 2 -87 -6 -23 -8 -47 -14 -52 -16 -51 -10 -134 -42 -153 -58 -62 -55
-64 -106 -12 -266 17 -52 33 -103 35 -113 2 -10 24 -82 49 -160 24 -78 59
-189 76 -247 17 -58 34 -112 37 -120 3 -8 7 -19 8 -25 22 -96 61 -178 102
-217 26 -25 109 -67 193 -98 19 -7 49 -19 65 -25 17 -7 71 -29 120 -48 50 -20
104 -41 120 -48 17 -7 35 -13 40 -15 8 -2 303 -121 370 -149 11 -4 25 -9 30
-11 6 -2 48 -18 94 -37 59 -24 80 -37 70 -43 -8 -5 -66 -30 -129 -55 -510
-206 -649 -262 -677 -275 -17 -8 -34 -14 -37 -14 -3 0 -29 -11 -58 -23 -29
-13 -78 -34 -109 -46 -66 -26 -122 -76 -145 -128 -9 -21 -27 -76 -41 -123 -13
-47 -28 -94 -33 -105 -5 -11 -12 -31 -15 -45 -7 -26 -51 -170 -130 -423 -26
-81 -48 -157 -50 -167 -2 -11 -7 -25 -10 -30 -3 -5 -8 -30 -11 -54 -6 -48 8
-85 49 -126 32 -32 232 -94 281 -87 40 5 85 31 107 61 14 18 63 157 74 206 2
8 12 42 23 75 23 70 64 204 68 222 1 7 9 32 17 55 18 51 58 177 62 198 2 8 4
15 5 15 1 0 3 9 5 19 2 10 10 24 17 31 7 7 157 70 333 139 176 70 329 131 340
136 41 19 98 40 107 40 5 0 3 -6 -4 -14 -8 -7 -34 -37 -59 -66 -24 -29 -55
-65 -69 -80 -14 -15 -41 -46 -60 -70 -19 -24 -44 -54 -55 -66 -19 -21 -82 -94
-122 -140 -42 -50 -120 -139 -141 -163 -32 -34 -63 -105 -68 -150 -1 -19 6
-74 17 -121 11 -47 22 -93 24 -103 2 -9 6 -21 9 -25 3 -5 7 -19 9 -33 3 -13
10 -44 17 -69 7 -25 13 -52 15 -60 2 -8 12 -49 23 -90 12 -41 23 -87 26 -102
3 -16 8 -40 12 -55 3 -15 7 -30 10 -35 3 -4 7 -16 9 -25 2 -10 15 -64 29 -119
15 -56 28 -110 30 -120 3 -11 14 -54 26 -97 12 -43 24 -90 26 -104 6 -34 21
-62 48 -91 33 -37 67 -50 121 -47 44 3 90 10 90 15 0 1 14 4 30 6 56 8 132 45
153 74 19 25 45 104 37 112 -2 2 -6 17 -9 33 -6 31 -14 64 -86 340 -23 88 -42
165 -44 170 -1 6 -5 19 -9 30 -3 11 -8 31 -11 45 -2 14 -10 45 -17 70 -7 25
-13 50 -15 55 -1 6 -9 37 -18 71 -8 33 -17 69 -19 80 -1 10 -5 24 -9 29 -3 6
-8 28 -12 50 -6 38 -4 43 61 116 38 41 91 102 118 134 28 32 82 96 122 142
l72 83 -1 -58 c-2 -82 11 -175 38 -269 24 -83 72 -195 86 -201 4 -2 8 -8 8
-14 0 -41 223 -288 260 -288 5 0 10 -4 10 -9 0 -4 20 -19 45 -32 25 -13 45
-27 45 -31 0 -5 6 -8 13 -8 6 0 32 -10 57 -22 127 -61 220 -81 380 -82 160 -1
206 5 324 45 240 80 442 252 552 470 19 38 41 90 50 116 8 27 18 55 21 63 4 8
7 17 8 20 4 14 18 98 21 120 1 14 3 27 4 30 1 3 2 37 2 77 l-1 72 97 -112 c53
-62 101 -117 107 -123 5 -6 29 -33 52 -60 22 -27 59 -71 82 -97 23 -27 41 -52
41 -56 0 -4 -7 -30 -15 -57 -8 -27 -15 -50 -15 -51 0 -2 0 -4 -1 -5 0 -2 -2
-10 -4 -18 -1 -8 -15 -62 -30 -120 -14 -58 -28 -113 -30 -124 -3 -10 -11 -42
-19 -70 -8 -28 -17 -62 -20 -76 -3 -14 -15 -61 -27 -105 -11 -44 -22 -87 -24
-95 -2 -8 -11 -40 -19 -72 -8 -31 -18 -67 -20 -80 -3 -12 -10 -41 -17 -63 -24
-87 -9 -151 49 -201 33 -29 238 -79 286 -70 60 11 117 72 130 137 2 13 27 114
56 224 29 110 53 207 55 215 2 8 17 69 35 135 17 66 34 131 36 145 3 14 16 63
29 110 13 47 26 96 29 110 3 14 12 52 21 85 9 33 18 80 20 104 4 54 -24 134
-63 176 -15 17 -41 46 -57 66 -35 41 -141 165 -194 225 -20 23 -47 54 -60 70
-14 16 -67 77 -118 137 -52 59 -89 107 -83 107 5 0 29 -9 53 -19 44 -20 308
-125 317 -126 3 -1 21 -8 40 -16 19 -9 112 -46 207 -83 95 -38 172 -71 171
-75 -2 -6 2 -18 50 -171 17 -52 60 -192 96 -310 37 -118 71 -223 76 -232 6
-10 10 -24 10 -32 0 -36 38 -84 85 -109 33 -16 113 -19 133 -4 6 5 12 7 12 3
0 -3 17 1 38 9 20 7 56 19 78 25 83 21 132 86 121 163 -4 23 -20 85 -37 137
-17 52 -33 103 -35 113 -2 10 -25 84 -50 165 -26 81 -60 192 -77 247 -16 55
-32 107 -35 115 -4 8 -7 20 -8 25 -2 6 -15 47 -30 92 -42 127 -79 156 -310
241 -44 17 -98 38 -120 47 -51 23 -45 20 -275 111 -107 42 -208 82 -225 89
-33 14 -65 26 -80 31 -35 11 -175 70 -175 74 0 4 366 156 395 164 6 2 21 8 35
14 14 5 88 36 165 67 77 32 146 62 153 67 6 6 12 7 12 3 0 -4 7 -1 17 6 9 8
17 13 17 11 1 -2 14 1 29 7 16 6 30 11 33 11 2 0 23 9 47 19 23 11 71 32 107
47 68 28 128 70 129 92 1 6 4 12 9 12 10 0 33 62 75 200 82 267 200 649 222
716 7 23 12 62 10 87 -5 83 -50 118 -214 166 -150 45 -223 5 -265 -145 -9 -33
-20 -66 -23 -74 -6 -15 -10 -27 -16 -52 -4 -16 -68 -223 -107 -343 -15 -49
-34 -110 -41 -135 -15 -55 -14 -51 -22 -72 -4 -10 -9 -25 -12 -33 -2 -8 -16
-20 -30 -25 -14 -6 -37 -15 -52 -22 -16 -6 -30 -12 -33 -12 -14 -3 -160 -64
-182 -76 -10 -6 -23 -10 -29 -10 -6 0 -25 -7 -42 -14 -61 -28 -412 -166 -422
-166 -5 0 1 11 15 24 14 13 34 34 44 47 19 24 171 202 212 249 35 40 149 173
170 199 10 13 31 35 45 50 33 34 80 104 84 128 2 10 4 18 5 18 7 0 6 94 -1
111 -4 11 -10 34 -13 50 -3 16 -35 144 -71 284 -36 140 -67 262 -69 270 -2 8
-6 22 -9 30 -4 13 -13 45 -33 133 -2 9 -6 25 -9 35 -2 9 -20 80 -40 157 -44
175 -57 204 -102 235 -29 20 -48 25 -92 24 -68 -2 -197 -34 -241 -60 -56 -33
-87 -114 -68 -179 5 -16 11 -41 14 -54 3 -14 14 -57 25 -97 11 -40 22 -82 24
-94 3 -11 7 -29 10 -41 2 -11 7 -29 10 -39 3 -10 8 -27 10 -37 2 -10 16 -63
30 -118 28 -106 44 -169 50 -198 2 -9 6 -21 9 -25 3 -5 8 -22 11 -38 3 -16 14
-63 25 -104 32 -118 32 -118 8 -153 -13 -17 -30 -39 -38 -47 -8 -9 -37 -42
-65 -75 -27 -32 -61 -71 -75 -87 -14 -15 -35 -40 -47 -55 -13 -15 -35 -42 -50
-59 -16 -17 -48 -55 -73 -84 -25 -30 -55 -64 -67 -77 -11 -13 -36 -42 -53 -63
-18 -22 -36 -40 -40 -40 -4 0 -7 71 -7 158 -1 182 -8 252 -35 342 -41 133
-104 237 -202 335 -72 71 -128 112 -216 154 -86 42 -128 47 -160 22 -23 -19
-25 -26 -28 -128 -2 -59 -3 -123 -2 -140 0 -28 -3 -33 -22 -34 -13 -1 -27 -1
-32 0 -5 1 -45 1 -90 1 -44 -1 -97 0 -116 0 -19 1 -41 2 -48 3 -7 0 -12 10
-11 21 0 12 0 26 -1 31 -1 6 -2 56 -2 112 0 113 -10 136 -62 149 -34 8 -134
-33 -221 -90 -74 -49 -181 -155 -222 -221 -45 -71 -93 -171 -93 -192 0 -11 -5
-24 -12 -31 -7 -7 -9 -12 -5 -12 3 0 2 -11 -3 -24 -14 -39 -21 -129 -23 -304
l-1 -163 -26 28 c-29 32 -307 356 -336 392 -10 13 -26 31 -35 40 -8 9 -40 45
-70 81 -30 36 -58 68 -63 72 -5 3 8 72 28 155 21 81 39 156 42 167 2 10 14 62
28 115 14 53 27 107 29 121 3 14 12 50 21 80 8 30 17 66 20 80 3 14 7 34 10
45 72 287 73 295 46 345 -19 36 -58 67 -94 75 -17 4 -36 9 -43 10 -7 2 -41 10
-77 19 -78 20 -116 18 -161 -8z"/>
</g>
</svg>
